<?xml version="1.0" encoding="UTF-8"?>
<svg width="18px" height="16px" viewBox="0 0 18 16" version="1.1" xmlns="http://www.w3.org/2000/svg" xmlns:xlink="http://www.w3.org/1999/xlink">
    <!-- Generator: Sketch 46 (44423) - http://www.bohemiancoding.com/sketch -->
    <title>ic_store_black_24px</title>
    <desc>Created with Sketch.</desc>
    <defs></defs>
    <g id="Page-1" stroke="none" stroke-width="1" fill="none" fill-rule="evenodd">
        <g id="usuario_buscar_success" transform="translate(-878.000000, -446.000000)">
            <g id="Group-4" transform="translate(117.000000, 391.000000)">
                <g id="Group-2" transform="translate(7.000000, 49.000000)">
                    <g id="Group">
                        <g id="ic_store_black_24px" transform="translate(751.000000, 2.000000)">
                            <polygon id="Shape" points="0 0 24 0 24 24 0 24"></polygon>
                            <path d="M20,4 L4,4 L4,6 L20,6 L20,4 Z M21,14 L21,12 L20,7 L4,7 L3,12 L3,14 L4,14 L4,20 L14,20 L14,14 L18,14 L18,20 L20,20 L20,14 L21,14 Z M12,18 L6,18 L6,14 L12,14 L12,18 Z" id="Shape" fill="#F8773A" fill-rule="nonzero"></path>
                        </g>
                    </g>
                </g>
            </g>
        </g>
    </g>
</svg>